<?xml version="1.0" encoding="utf-8" standalone="no"?>
<!DOCTYPE svg PUBLIC "-//W3C//DTD SVG 1.1//EN"
  "http://www.w3.org/Graphics/SVG/1.1/DTD/svg11.dtd">
<!-- Created with matplotlib (https://matplotlib.org/) -->
<svg height="288pt" version="1.1" viewBox="0 0 432 288" width="432pt" xmlns="http://www.w3.org/2000/svg" xmlns:xlink="http://www.w3.org/1999/xlink">
 <defs>
  <style type="text/css">
*{stroke-linecap:butt;stroke-linejoin:round;}
  </style>
 </defs>
 <g id="figure_1">
  <g id="patch_1">
   <path d="M 0 288 
L 432 288 
L 432 0 
L 0 0 
z
" style="fill:#ffffff;"/>
  </g>
  <g id="axes_1">
   <g id="patch_2">
    <path d="M 91.476166 218.58 
L 348.343233 218.58 
L 348.343233 25.92 
L 91.476166 25.92 
z
" style="fill:#ffffff;"/>
   </g>
   <g id="matplotlib.axis_1">
    <g id="xtick_1">
     <g id="line2d_1">
      <path clip-path="url(#p3af847143a)" d="M 91.476166 218.58 
L 91.476166 25.92 
" style="fill:none;stroke:#cccccc;stroke-linecap:round;stroke-width:1.5;"/>
     </g>
     <g id="text_1">
      <!-- 0.00 -->
      <defs>
       <path d="M 31.78125 66.40625 
Q 24.171875 66.40625 20.328125 58.90625 
Q 16.5 51.421875 16.5 36.375 
Q 16.5 21.390625 20.328125 13.890625 
Q 24.171875 6.390625 31.78125 6.390625 
Q 39.453125 6.390625 43.28125 13.890625 
Q 47.125 21.390625 47.125 36.375 
Q 47.125 51.421875 43.28125 58.90625 
Q 39.453125 66.40625 31.78125 66.40625 
z
M 31.78125 74.21875 
Q 44.046875 74.21875 50.515625 64.515625 
Q 56.984375 54.828125 56.984375 36.375 
Q 56.984375 17.96875 50.515625 8.265625 
Q 44.046875 -1.421875 31.78125 -1.421875 
Q 19.53125 -1.421875 13.0625 8.265625 
Q 6.59375 17.96875 6.59375 36.375 
Q 6.59375 54.828125 13.0625 64.515625 
Q 19.53125 74.21875 31.78125 74.21875 
z
" id="DejaVuSans-48"/>
       <path d="M 10.6875 12.40625 
L 21 12.40625 
L 21 0 
L 10.6875 0 
z
" id="DejaVuSans-46"/>
      </defs>
      <g style="fill:#262626;" transform="translate(73.107025 243.617422)scale(0.165 -0.165)">
       <use xlink:href="#DejaVuSans-48"/>
       <use x="63.623047" xlink:href="#DejaVuSans-46"/>
       <use x="95.410156" xlink:href="#DejaVuSans-48"/>
       <use x="159.033203" xlink:href="#DejaVuSans-48"/>
      </g>
     </g>
    </g>
    <g id="xtick_2">
     <g id="line2d_2">
      <path clip-path="url(#p3af847143a)" d="M 142.84958 218.58 
L 142.84958 25.92 
" style="fill:none;stroke:#cccccc;stroke-linecap:round;stroke-width:1.5;"/>
     </g>
     <g id="text_2">
      <!-- 0.02 -->
      <defs>
       <path d="M 19.1875 8.296875 
L 53.609375 8.296875 
L 53.609375 0 
L 7.328125 0 
L 7.328125 8.296875 
Q 12.9375 14.109375 22.625 23.890625 
Q 32.328125 33.6875 34.8125 36.53125 
Q 39.546875 41.84375 41.421875 45.53125 
Q 43.3125 49.21875 43.3125 52.78125 
Q 43.3125 58.59375 39.234375 62.25 
Q 35.15625 65.921875 28.609375 65.921875 
Q 23.96875 65.921875 18.8125 64.3125 
Q 13.671875 62.703125 7.8125 59.421875 
L 7.8125 69.390625 
Q 13.765625 71.78125 18.9375 73 
Q 24.125 74.21875 28.421875 74.21875 
Q 39.75 74.21875 46.484375 68.546875 
Q 53.21875 62.890625 53.21875 53.421875 
Q 53.21875 48.921875 51.53125 44.890625 
Q 49.859375 40.875 45.40625 35.40625 
Q 44.1875 33.984375 37.640625 27.21875 
Q 31.109375 20.453125 19.1875 8.296875 
z
" id="DejaVuSans-50"/>
      </defs>
      <g style="fill:#262626;" transform="translate(124.480439 243.617422)scale(0.165 -0.165)">
       <use xlink:href="#DejaVuSans-48"/>
       <use x="63.623047" xlink:href="#DejaVuSans-46"/>
       <use x="95.410156" xlink:href="#DejaVuSans-48"/>
       <use x="159.033203" xlink:href="#DejaVuSans-50"/>
      </g>
     </g>
    </g>
    <g id="xtick_3">
     <g id="line2d_3">
      <path clip-path="url(#p3af847143a)" d="M 194.222993 218.58 
L 194.222993 25.92 
" style="fill:none;stroke:#cccccc;stroke-linecap:round;stroke-width:1.5;"/>
     </g>
     <g id="text_3">
      <!-- 0.04 -->
      <defs>
       <path d="M 37.796875 64.3125 
L 12.890625 25.390625 
L 37.796875 25.390625 
z
M 35.203125 72.90625 
L 47.609375 72.90625 
L 47.609375 25.390625 
L 58.015625 25.390625 
L 58.015625 17.1875 
L 47.609375 17.1875 
L 47.609375 0 
L 37.796875 0 
L 37.796875 17.1875 
L 4.890625 17.1875 
L 4.890625 26.703125 
z
" id="DejaVuSans-52"/>
      </defs>
      <g style="fill:#262626;" transform="translate(175.853852 243.617422)scale(0.165 -0.165)">
       <use xlink:href="#DejaVuSans-48"/>
       <use x="63.623047" xlink:href="#DejaVuSans-46"/>
       <use x="95.410156" xlink:href="#DejaVuSans-48"/>
       <use x="159.033203" xlink:href="#DejaVuSans-52"/>
      </g>
     </g>
    </g>
    <g id="xtick_4">
     <g id="line2d_4">
      <path clip-path="url(#p3af847143a)" d="M 245.596406 218.58 
L 245.596406 25.92 
" style="fill:none;stroke:#cccccc;stroke-linecap:round;stroke-width:1.5;"/>
     </g>
     <g id="text_4">
      <!-- 0.06 -->
      <defs>
       <path d="M 33.015625 40.375 
Q 26.375 40.375 22.484375 35.828125 
Q 18.609375 31.296875 18.609375 23.390625 
Q 18.609375 15.53125 22.484375 10.953125 
Q 26.375 6.390625 33.015625 6.390625 
Q 39.65625 6.390625 43.53125 10.953125 
Q 47.40625 15.53125 47.40625 23.390625 
Q 47.40625 31.296875 43.53125 35.828125 
Q 39.65625 40.375 33.015625 40.375 
z
M 52.59375 71.296875 
L 52.59375 62.3125 
Q 48.875 64.0625 45.09375 64.984375 
Q 41.3125 65.921875 37.59375 65.921875 
Q 27.828125 65.921875 22.671875 59.328125 
Q 17.53125 52.734375 16.796875 39.40625 
Q 19.671875 43.65625 24.015625 45.921875 
Q 28.375 48.1875 33.59375 48.1875 
Q 44.578125 48.1875 50.953125 41.515625 
Q 57.328125 34.859375 57.328125 23.390625 
Q 57.328125 12.15625 50.6875 5.359375 
Q 44.046875 -1.421875 33.015625 -1.421875 
Q 20.359375 -1.421875 13.671875 8.265625 
Q 6.984375 17.96875 6.984375 36.375 
Q 6.984375 53.65625 15.1875 63.9375 
Q 23.390625 74.21875 37.203125 74.21875 
Q 40.921875 74.21875 44.703125 73.484375 
Q 48.484375 72.75 52.59375 71.296875 
z
" id="DejaVuSans-54"/>
      </defs>
      <g style="fill:#262626;" transform="translate(227.227266 243.617422)scale(0.165 -0.165)">
       <use xlink:href="#DejaVuSans-48"/>
       <use x="63.623047" xlink:href="#DejaVuSans-46"/>
       <use x="95.410156" xlink:href="#DejaVuSans-48"/>
       <use x="159.033203" xlink:href="#DejaVuSans-54"/>
      </g>
     </g>
    </g>
    <g id="xtick_5">
     <g id="line2d_5">
      <path clip-path="url(#p3af847143a)" d="M 296.96982 218.58 
L 296.96982 25.92 
" style="fill:none;stroke:#cccccc;stroke-linecap:round;stroke-width:1.5;"/>
     </g>
     <g id="text_5">
      <!-- 0.08 -->
      <defs>
       <path d="M 31.78125 34.625 
Q 24.75 34.625 20.71875 30.859375 
Q 16.703125 27.09375 16.703125 20.515625 
Q 16.703125 13.921875 20.71875 10.15625 
Q 24.75 6.390625 31.78125 6.390625 
Q 38.8125 6.390625 42.859375 10.171875 
Q 46.921875 13.96875 46.921875 20.515625 
Q 46.921875 27.09375 42.890625 30.859375 
Q 38.875 34.625 31.78125 34.625 
z
M 21.921875 38.8125 
Q 15.578125 40.375 12.03125 44.71875 
Q 8.5 49.078125 8.5 55.328125 
Q 8.5 64.0625 14.71875 69.140625 
Q 20.953125 74.21875 31.78125 74.21875 
Q 42.671875 74.21875 48.875 69.140625 
Q 55.078125 64.0625 55.078125 55.328125 
Q 55.078125 49.078125 51.53125 44.71875 
Q 48 40.375 41.703125 38.8125 
Q 48.828125 37.15625 52.796875 32.3125 
Q 56.78125 27.484375 56.78125 20.515625 
Q 56.78125 9.90625 50.3125 4.234375 
Q 43.84375 -1.421875 31.78125 -1.421875 
Q 19.734375 -1.421875 13.25 4.234375 
Q 6.78125 9.90625 6.78125 20.515625 
Q 6.78125 27.484375 10.78125 32.3125 
Q 14.796875 37.15625 21.921875 38.8125 
z
M 18.3125 54.390625 
Q 18.3125 48.734375 21.84375 45.5625 
Q 25.390625 42.390625 31.78125 42.390625 
Q 38.140625 42.390625 41.71875 45.5625 
Q 45.3125 48.734375 45.3125 54.390625 
Q 45.3125 60.0625 41.71875 63.234375 
Q 38.140625 66.40625 31.78125 66.40625 
Q 25.390625 66.40625 21.84375 63.234375 
Q 18.3125 60.0625 18.3125 54.390625 
z
" id="DejaVuSans-56"/>
      </defs>
      <g style="fill:#262626;" transform="translate(278.600679 243.617422)scale(0.165 -0.165)">
       <use xlink:href="#DejaVuSans-48"/>
       <use x="63.623047" xlink:href="#DejaVuSans-46"/>
       <use x="95.410156" xlink:href="#DejaVuSans-48"/>
       <use x="159.033203" xlink:href="#DejaVuSans-56"/>
      </g>
     </g>
    </g>
    <g id="xtick_6">
     <g id="line2d_6">
      <path clip-path="url(#p3af847143a)" d="M 348.343233 218.58 
L 348.343233 25.92 
" style="fill:none;stroke:#cccccc;stroke-linecap:round;stroke-width:1.5;"/>
     </g>
     <g id="text_6">
      <!-- 0.10 -->
      <defs>
       <path d="M 12.40625 8.296875 
L 28.515625 8.296875 
L 28.515625 63.921875 
L 10.984375 60.40625 
L 10.984375 69.390625 
L 28.421875 72.90625 
L 38.28125 72.90625 
L 38.28125 8.296875 
L 54.390625 8.296875 
L 54.390625 0 
L 12.40625 0 
z
" id="DejaVuSans-49"/>
      </defs>
      <g style="fill:#262626;" transform="translate(329.974093 243.617422)scale(0.165 -0.165)">
       <use xlink:href="#DejaVuSans-48"/>
       <use x="63.623047" xlink:href="#DejaVuSans-46"/>
       <use x="95.410156" xlink:href="#DejaVuSans-49"/>
       <use x="159.033203" xlink:href="#DejaVuSans-48"/>
      </g>
     </g>
    </g>
    <g id="text_7">
     <!-- FPR -->
     <defs>
      <path d="M 9.8125 72.90625 
L 51.703125 72.90625 
L 51.703125 64.59375 
L 19.671875 64.59375 
L 19.671875 43.109375 
L 48.578125 43.109375 
L 48.578125 34.8125 
L 19.671875 34.8125 
L 19.671875 0 
L 9.8125 0 
z
" id="DejaVuSans-70"/>
      <path d="M 19.671875 64.796875 
L 19.671875 37.40625 
L 32.078125 37.40625 
Q 38.96875 37.40625 42.71875 40.96875 
Q 46.484375 44.53125 46.484375 51.125 
Q 46.484375 57.671875 42.71875 61.234375 
Q 38.96875 64.796875 32.078125 64.796875 
z
M 9.8125 72.90625 
L 32.078125 72.90625 
Q 44.34375 72.90625 50.609375 67.359375 
Q 56.890625 61.8125 56.890625 51.125 
Q 56.890625 40.328125 50.609375 34.8125 
Q 44.34375 29.296875 32.078125 29.296875 
L 19.671875 29.296875 
L 19.671875 0 
L 9.8125 0 
z
" id="DejaVuSans-80"/>
      <path d="M 44.390625 34.1875 
Q 47.5625 33.109375 50.5625 29.59375 
Q 53.5625 26.078125 56.59375 19.921875 
L 66.609375 0 
L 56 0 
L 46.6875 18.703125 
Q 43.0625 26.03125 39.671875 28.421875 
Q 36.28125 30.8125 30.421875 30.8125 
L 19.671875 30.8125 
L 19.671875 0 
L 9.8125 0 
L 9.8125 72.90625 
L 32.078125 72.90625 
Q 44.578125 72.90625 50.734375 67.671875 
Q 56.890625 62.453125 56.890625 51.90625 
Q 56.890625 45.015625 53.6875 40.46875 
Q 50.484375 35.9375 44.390625 34.1875 
z
M 19.671875 64.796875 
L 19.671875 38.921875 
L 32.078125 38.921875 
Q 39.203125 38.921875 42.84375 42.21875 
Q 46.484375 45.515625 46.484375 51.90625 
Q 46.484375 58.296875 42.84375 61.546875 
Q 39.203125 64.796875 32.078125 64.796875 
z
" id="DejaVuSans-82"/>
     </defs>
     <g style="fill:#262626;" transform="translate(203.052981 264.726094)scale(0.18 -0.18)">
      <use xlink:href="#DejaVuSans-70"/>
      <use x="57.519531" xlink:href="#DejaVuSans-80"/>
      <use x="117.822266" xlink:href="#DejaVuSans-82"/>
     </g>
    </g>
   </g>
   <g id="matplotlib.axis_2">
    <g id="ytick_1">
     <g id="line2d_7">
      <path clip-path="url(#p3af847143a)" d="M 91.476166 218.58 
L 348.343233 218.58 
" style="fill:none;stroke:#cccccc;stroke-linecap:round;stroke-width:1.5;"/>
     </g>
     <g id="text_8">
      <!-- $\mathdefault{10^{-4}}$ -->
      <defs>
       <path d="M 10.59375 35.5 
L 73.1875 35.5 
L 73.1875 27.203125 
L 10.59375 27.203125 
z
" id="DejaVuSans-8722"/>
      </defs>
      <g style="fill:#262626;" transform="translate(40.201166 224.848711)scale(0.165 -0.165)">
       <use transform="translate(0 0.684375)" xlink:href="#DejaVuSans-49"/>
       <use transform="translate(63.623047 0.684375)" xlink:href="#DejaVuSans-48"/>
       <use transform="translate(128.203125 38.965625)scale(0.7)" xlink:href="#DejaVuSans-8722"/>
       <use transform="translate(186.855469 38.965625)scale(0.7)" xlink:href="#DejaVuSans-52"/>
      </g>
     </g>
    </g>
    <g id="ytick_2">
     <g id="line2d_8">
      <path clip-path="url(#p3af847143a)" d="M 91.476166 170.415 
L 348.343233 170.415 
" style="fill:none;stroke:#cccccc;stroke-linecap:round;stroke-width:1.5;"/>
     </g>
     <g id="text_9">
      <!-- $\mathdefault{10^{-3}}$ -->
      <defs>
       <path d="M 40.578125 39.3125 
Q 47.65625 37.796875 51.625 33 
Q 55.609375 28.21875 55.609375 21.1875 
Q 55.609375 10.40625 48.1875 4.484375 
Q 40.765625 -1.421875 27.09375 -1.421875 
Q 22.515625 -1.421875 17.65625 -0.515625 
Q 12.796875 0.390625 7.625 2.203125 
L 7.625 11.71875 
Q 11.71875 9.328125 16.59375 8.109375 
Q 21.484375 6.890625 26.8125 6.890625 
Q 36.078125 6.890625 40.9375 10.546875 
Q 45.796875 14.203125 45.796875 21.1875 
Q 45.796875 27.640625 41.28125 31.265625 
Q 36.765625 34.90625 28.71875 34.90625 
L 20.21875 34.90625 
L 20.21875 43.015625 
L 29.109375 43.015625 
Q 36.375 43.015625 40.234375 45.921875 
Q 44.09375 48.828125 44.09375 54.296875 
Q 44.09375 59.90625 40.109375 62.90625 
Q 36.140625 65.921875 28.71875 65.921875 
Q 24.65625 65.921875 20.015625 65.03125 
Q 15.375 64.15625 9.8125 62.3125 
L 9.8125 71.09375 
Q 15.4375 72.65625 20.34375 73.4375 
Q 25.25 74.21875 29.59375 74.21875 
Q 40.828125 74.21875 47.359375 69.109375 
Q 53.90625 64.015625 53.90625 55.328125 
Q 53.90625 49.265625 50.4375 45.09375 
Q 46.96875 40.921875 40.578125 39.3125 
z
" id="DejaVuSans-51"/>
      </defs>
      <g style="fill:#262626;" transform="translate(40.201166 176.683711)scale(0.165 -0.165)">
       <use transform="translate(0 0.765625)" xlink:href="#DejaVuSans-49"/>
       <use transform="translate(63.623047 0.765625)" xlink:href="#DejaVuSans-48"/>
       <use transform="translate(128.203125 39.046875)scale(0.7)" xlink:href="#DejaVuSans-8722"/>
       <use transform="translate(186.855469 39.046875)scale(0.7)" xlink:href="#DejaVuSans-51"/>
      </g>
     </g>
    </g>
    <g id="ytick_3">
     <g id="line2d_9">
      <path clip-path="url(#p3af847143a)" d="M 91.476166 122.25 
L 348.343233 122.25 
" style="fill:none;stroke:#cccccc;stroke-linecap:round;stroke-width:1.5;"/>
     </g>
     <g id="text_10">
      <!-- $\mathdefault{10^{-2}}$ -->
      <g style="fill:#262626;" transform="translate(40.201166 128.518711)scale(0.165 -0.165)">
       <use transform="translate(0 0.765625)" xlink:href="#DejaVuSans-49"/>
       <use transform="translate(63.623047 0.765625)" xlink:href="#DejaVuSans-48"/>
       <use transform="translate(128.203125 39.046875)scale(0.7)" xlink:href="#DejaVuSans-8722"/>
       <use transform="translate(186.855469 39.046875)scale(0.7)" xlink:href="#DejaVuSans-50"/>
      </g>
     </g>
    </g>
    <g id="ytick_4">
     <g id="line2d_10">
      <path clip-path="url(#p3af847143a)" d="M 91.476166 74.085 
L 348.343233 74.085 
" style="fill:none;stroke:#cccccc;stroke-linecap:round;stroke-width:1.5;"/>
     </g>
     <g id="text_11">
      <!-- $\mathdefault{10^{-1}}$ -->
      <g style="fill:#262626;" transform="translate(40.201166 80.353711)scale(0.165 -0.165)">
       <use transform="translate(0 0.684375)" xlink:href="#DejaVuSans-49"/>
       <use transform="translate(63.623047 0.684375)" xlink:href="#DejaVuSans-48"/>
       <use transform="translate(128.203125 38.965625)scale(0.7)" xlink:href="#DejaVuSans-8722"/>
       <use transform="translate(186.855469 38.965625)scale(0.7)" xlink:href="#DejaVuSans-49"/>
      </g>
     </g>
    </g>
    <g id="ytick_5">
     <g id="line2d_11">
      <path clip-path="url(#p3af847143a)" d="M 91.476166 25.92 
L 348.343233 25.92 
" style="fill:none;stroke:#cccccc;stroke-linecap:round;stroke-width:1.5;"/>
     </g>
     <g id="text_12">
      <!-- $\mathdefault{10^{0}}$ -->
      <g style="fill:#262626;" transform="translate(49.936166 32.188711)scale(0.165 -0.165)">
       <use transform="translate(0 0.765625)" xlink:href="#DejaVuSans-49"/>
       <use transform="translate(63.623047 0.765625)" xlink:href="#DejaVuSans-48"/>
       <use transform="translate(128.203125 39.046875)scale(0.7)" xlink:href="#DejaVuSans-48"/>
      </g>
     </g>
    </g>
    <g id="ytick_6"/>
    <g id="ytick_7"/>
    <g id="ytick_8"/>
    <g id="ytick_9"/>
    <g id="ytick_10"/>
    <g id="ytick_11"/>
    <g id="ytick_12"/>
    <g id="ytick_13"/>
    <g id="ytick_14"/>
    <g id="ytick_15"/>
    <g id="ytick_16"/>
    <g id="ytick_17"/>
    <g id="ytick_18"/>
    <g id="ytick_19"/>
    <g id="ytick_20"/>
    <g id="ytick_21"/>
    <g id="ytick_22"/>
    <g id="ytick_23"/>
    <g id="ytick_24"/>
    <g id="ytick_25"/>
    <g id="ytick_26"/>
    <g id="ytick_27"/>
    <g id="ytick_28"/>
    <g id="ytick_29"/>
    <g id="ytick_30"/>
    <g id="ytick_31"/>
    <g id="ytick_32"/>
    <g id="ytick_33"/>
    <g id="ytick_34"/>
    <g id="ytick_35"/>
    <g id="ytick_36"/>
    <g id="ytick_37"/>
    <g id="text_13">
     <!-- Prevalence -->
     <defs>
      <path d="M 41.109375 46.296875 
Q 39.59375 47.171875 37.8125 47.578125 
Q 36.03125 48 33.890625 48 
Q 26.265625 48 22.1875 43.046875 
Q 18.109375 38.09375 18.109375 28.8125 
L 18.109375 0 
L 9.078125 0 
L 9.078125 54.6875 
L 18.109375 54.6875 
L 18.109375 46.1875 
Q 20.953125 51.171875 25.484375 53.578125 
Q 30.03125 56 36.53125 56 
Q 37.453125 56 38.578125 55.875 
Q 39.703125 55.765625 41.0625 55.515625 
z
" id="DejaVuSans-114"/>
      <path d="M 56.203125 29.59375 
L 56.203125 25.203125 
L 14.890625 25.203125 
Q 15.484375 15.921875 20.484375 11.0625 
Q 25.484375 6.203125 34.421875 6.203125 
Q 39.59375 6.203125 44.453125 7.46875 
Q 49.3125 8.734375 54.109375 11.28125 
L 54.109375 2.78125 
Q 49.265625 0.734375 44.1875 -0.34375 
Q 39.109375 -1.421875 33.890625 -1.421875 
Q 20.796875 -1.421875 13.15625 6.1875 
Q 5.515625 13.8125 5.515625 26.8125 
Q 5.515625 40.234375 12.765625 48.109375 
Q 20.015625 56 32.328125 56 
Q 43.359375 56 49.78125 48.890625 
Q 56.203125 41.796875 56.203125 29.59375 
z
M 47.21875 32.234375 
Q 47.125 39.59375 43.09375 43.984375 
Q 39.0625 48.390625 32.421875 48.390625 
Q 24.90625 48.390625 20.390625 44.140625 
Q 15.875 39.890625 15.1875 32.171875 
z
" id="DejaVuSans-101"/>
      <path d="M 2.984375 54.6875 
L 12.5 54.6875 
L 29.59375 8.796875 
L 46.6875 54.6875 
L 56.203125 54.6875 
L 35.6875 0 
L 23.484375 0 
z
" id="DejaVuSans-118"/>
      <path d="M 34.28125 27.484375 
Q 23.390625 27.484375 19.1875 25 
Q 14.984375 22.515625 14.984375 16.5 
Q 14.984375 11.71875 18.140625 8.90625 
Q 21.296875 6.109375 26.703125 6.109375 
Q 34.1875 6.109375 38.703125 11.40625 
Q 43.21875 16.703125 43.21875 25.484375 
L 43.21875 27.484375 
z
M 52.203125 31.203125 
L 52.203125 0 
L 43.21875 0 
L 43.21875 8.296875 
Q 40.140625 3.328125 35.546875 0.953125 
Q 30.953125 -1.421875 24.3125 -1.421875 
Q 15.921875 -1.421875 10.953125 3.296875 
Q 6 8.015625 6 15.921875 
Q 6 25.140625 12.171875 29.828125 
Q 18.359375 34.515625 30.609375 34.515625 
L 43.21875 34.515625 
L 43.21875 35.40625 
Q 43.21875 41.609375 39.140625 45 
Q 35.0625 48.390625 27.6875 48.390625 
Q 23 48.390625 18.546875 47.265625 
Q 14.109375 46.140625 10.015625 43.890625 
L 10.015625 52.203125 
Q 14.9375 54.109375 19.578125 55.046875 
Q 24.21875 56 28.609375 56 
Q 40.484375 56 46.34375 49.84375 
Q 52.203125 43.703125 52.203125 31.203125 
z
" id="DejaVuSans-97"/>
      <path d="M 9.421875 75.984375 
L 18.40625 75.984375 
L 18.40625 0 
L 9.421875 0 
z
" id="DejaVuSans-108"/>
      <path d="M 54.890625 33.015625 
L 54.890625 0 
L 45.90625 0 
L 45.90625 32.71875 
Q 45.90625 40.484375 42.875 44.328125 
Q 39.84375 48.1875 33.796875 48.1875 
Q 26.515625 48.1875 22.3125 43.546875 
Q 18.109375 38.921875 18.109375 30.90625 
L 18.109375 0 
L 9.078125 0 
L 9.078125 54.6875 
L 18.109375 54.6875 
L 18.109375 46.1875 
Q 21.34375 51.125 25.703125 53.5625 
Q 30.078125 56 35.796875 56 
Q 45.21875 56 50.046875 50.171875 
Q 54.890625 44.34375 54.890625 33.015625 
z
" id="DejaVuSans-110"/>
      <path d="M 48.78125 52.59375 
L 48.78125 44.1875 
Q 44.96875 46.296875 41.140625 47.34375 
Q 37.3125 48.390625 33.40625 48.390625 
Q 24.65625 48.390625 19.8125 42.84375 
Q 14.984375 37.3125 14.984375 27.296875 
Q 14.984375 17.28125 19.8125 11.734375 
Q 24.65625 6.203125 33.40625 6.203125 
Q 37.3125 6.203125 41.140625 7.25 
Q 44.96875 8.296875 48.78125 10.40625 
L 48.78125 2.09375 
Q 45.015625 0.34375 40.984375 -0.53125 
Q 36.96875 -1.421875 32.421875 -1.421875 
Q 20.0625 -1.421875 12.78125 6.34375 
Q 5.515625 14.109375 5.515625 27.296875 
Q 5.515625 40.671875 12.859375 48.328125 
Q 20.21875 56 33.015625 56 
Q 37.15625 56 41.109375 55.140625 
Q 45.0625 54.296875 48.78125 52.59375 
z
" id="DejaVuSans-99"/>
     </defs>
     <g style="fill:#262626;" transform="translate(32.457729 171.624844)rotate(-90)scale(0.18 -0.18)">
      <use xlink:href="#DejaVuSans-80"/>
      <use x="58.552734" xlink:href="#DejaVuSans-114"/>
      <use x="97.416016" xlink:href="#DejaVuSans-101"/>
      <use x="158.939453" xlink:href="#DejaVuSans-118"/>
      <use x="218.119141" xlink:href="#DejaVuSans-97"/>
      <use x="279.398438" xlink:href="#DejaVuSans-108"/>
      <use x="307.181641" xlink:href="#DejaVuSans-101"/>
      <use x="368.705078" xlink:href="#DejaVuSans-110"/>
      <use x="432.083984" xlink:href="#DejaVuSans-99"/>
      <use x="487.064453" xlink:href="#DejaVuSans-101"/>
     </g>
    </g>
   </g>
   <g id="PathCollection_1">
    <path clip-path="url(#p3af847143a)" d="M 94.070783 218.58 
L 96.6654 218.58 
L 99.260017 218.58 
L 101.854633 218.58 
L 104.44925 218.58 
L 107.043867 218.58 
L 109.638484 218.58 
L 112.233101 218.58 
L 114.827718 218.58 
L 117.422334 218.58 
L 120.016951 218.58 
L 122.611568 218.58 
L 125.206185 218.58 
L 127.800802 218.58 
L 130.395419 218.58 
L 132.990036 218.58 
L 135.584652 218.58 
L 138.179269 218.58 
L 140.773886 218.58 
L 143.368503 218.58 
L 145.96312 218.58 
L 148.557737 218.58 
L 151.152353 218.58 
L 153.74697 218.58 
L 156.341587 218.58 
L 158.936204 218.58 
L 161.530821 218.58 
L 164.125438 218.58 
L 166.720054 218.58 
L 169.314671 218.58 
L 171.909288 218.58 
L 174.503905 218.58 
L 177.098522 218.58 
L 179.693139 218.58 
L 182.287755 218.58 
L 184.882372 218.58 
L 187.476989 218.58 
L 190.071606 218.58 
L 192.666223 218.58 
L 195.26084 218.58 
L 197.855457 218.58 
L 200.450073 218.58 
L 203.04469 218.58 
L 205.639307 218.58 
L 208.233924 218.58 
L 210.828541 218.58 
L 213.423158 218.58 
L 216.017774 218.58 
L 218.612391 218.58 
L 221.207008 218.58 
L 223.801625 218.58 
L 226.396242 218.58 
L 228.990859 218.58 
L 231.585475 218.58 
L 234.180092 218.58 
L 236.774709 218.58 
L 239.369326 218.58 
L 241.963943 218.58 
L 244.55856 218.58 
L 247.153176 218.58 
L 249.747793 218.58 
L 252.34241 218.58 
L 254.937027 218.58 
L 257.531644 218.58 
L 260.126261 218.58 
L 262.720878 218.58 
L 265.315494 218.58 
L 267.910111 218.58 
L 270.504728 218.58 
L 273.099345 218.58 
L 275.693962 218.58 
L 278.288579 218.58 
L 280.883195 218.58 
L 283.477812 218.58 
L 286.072429 218.58 
L 288.667046 218.58 
L 291.261663 218.58 
L 293.85628 218.58 
L 296.450896 218.58 
L 299.045513 218.58 
L 301.64013 218.58 
L 304.234747 218.58 
L 306.829364 218.58 
L 309.423981 218.58 
L 312.018597 218.58 
L 314.613214 218.58 
L 317.207831 218.58 
L 319.802448 218.58 
L 322.397065 218.58 
L 324.991682 218.58 
L 327.586298 218.58 
L 330.180915 218.58 
L 332.775532 218.58 
L 335.370149 218.58 
L 337.964766 218.58 
L 340.559383 218.58 
L 343.154 218.58 
L 345.748616 218.58 
L 348.343233 218.58 
L 348.343233 216.633939 
L 348.343233 214.687879 
L 348.343233 212.741818 
L 348.343233 210.795758 
L 348.343233 208.849697 
L 348.343233 206.903636 
L 348.343233 204.957576 
L 348.343233 203.011515 
L 348.343233 201.065455 
L 348.343233 199.119394 
L 348.343233 197.173333 
L 348.343233 195.227273 
L 348.343233 193.281212 
L 348.343233 191.335152 
L 348.343233 189.389091 
L 348.343233 187.44303 
L 348.343233 185.49697 
L 348.343233 183.550909 
L 348.343233 181.604848 
L 348.343233 179.658788 
L 348.343233 177.712727 
L 348.343233 175.766667 
L 348.343233 173.820606 
L 348.343233 171.874545 
L 348.343233 169.928485 
L 348.343233 167.982424 
L 348.343233 166.036364 
L 348.343233 164.090303 
L 348.343233 162.144242 
L 348.343233 160.198182 
L 348.343233 158.252121 
L 348.343233 156.306061 
L 348.343233 154.36 
L 348.343233 152.413939 
L 348.343233 150.467879 
L 348.343233 148.521818 
L 348.343233 146.575758 
L 348.343233 144.629697 
L 348.343233 142.683636 
L 348.343233 140.737576 
L 348.343233 138.791515 
L 348.343233 136.845455 
L 348.343233 134.899394 
L 348.343233 132.953333 
L 348.343233 131.007273 
L 348.343233 129.061212 
L 348.343233 127.115152 
L 348.343233 125.169091 
L 348.343233 123.22303 
L 348.343233 121.27697 
L 348.343233 119.330909 
L 348.343233 117.384848 
L 348.343233 115.438788 
L 348.343233 113.492727 
L 348.343233 111.546667 
L 348.343233 109.600606 
L 348.343233 107.654545 
L 348.343233 105.708485 
L 348.343233 103.762424 
L 348.343233 103.597139 
L 346.307377 103.762424 
L 345.748616 103.806248 
L 343.154 104.012753 
L 340.559383 104.222135 
L 337.964766 104.434487 
L 335.370149 104.649907 
L 332.775532 104.868495 
L 330.180915 105.09036 
L 327.586298 105.315614 
L 324.991682 105.544376 
L 323.159985 105.708485 
L 322.397065 105.774486 
L 319.802448 106.002585 
L 317.207831 106.234201 
L 314.613214 106.469458 
L 312.018597 106.70849 
L 309.423981 106.951435 
L 306.829364 107.198442 
L 304.234747 107.449665 
L 302.155484 107.654545 
L 301.64013 107.703561 
L 299.045513 107.954774 
L 296.450896 108.210257 
L 293.85628 108.470179 
L 291.261663 108.734718 
L 288.667046 109.004062 
L 286.072429 109.278413 
L 283.477812 109.557986 
L 283.0902 109.600606 
L 280.883195 109.834667 
L 278.288579 110.115035 
L 275.693962 110.400751 
L 273.099345 110.692051 
L 270.504728 110.989187 
L 267.910111 111.292429 
L 265.780203 111.546667 
L 265.315494 111.600169 
L 262.720878 111.905422 
L 260.126261 112.217004 
L 257.531644 112.535221 
L 254.937027 112.8604 
L 252.34241 113.192893 
L 250.055944 113.492727 
L 249.747793 113.531691 
L 247.153176 113.867695 
L 244.55856 114.211383 
L 241.963943 114.563165 
L 239.369326 114.923484 
L 236.774709 115.292819 
L 235.775978 115.438788 
L 234.180092 115.663529 
L 231.585475 116.03834 
L 228.990859 116.422773 
L 226.396242 116.817404 
L 223.801625 117.222863 
L 222.794659 117.384848 
L 221.207008 117.630843 
L 218.612391 118.044296 
L 216.017774 118.469498 
L 213.423158 118.907229 
L 210.98664 119.330909 
L 210.828541 119.357391 
L 208.233924 119.806083 
L 205.639307 120.268596 
L 203.04469 120.74593 
L 200.450073 121.239195 
L 200.258387 121.27697 
L 197.855457 121.732583 
L 195.26084 122.241314 
L 192.666223 122.768035 
L 190.505676 123.22303 
L 190.071606 123.311017 
L 187.476989 123.857504 
L 184.882372 124.424682 
L 182.287755 125.014401 
L 181.635549 125.169091 
L 179.693139 125.612084 
L 177.098522 126.228651 
L 174.503905 126.871878 
L 173.566947 127.115152 
L 171.909288 127.528888 
L 169.314671 128.206634 
L 166.720054 128.916742 
L 166.218734 129.061212 
L 164.125438 129.64073 
L 161.530821 130.395818 
L 159.538304 131.007273 
L 158.936204 131.184831 
L 156.341587 131.994021 
L 153.74697 132.849679 
L 153.451746 132.953333 
L 151.152353 133.72808 
L 148.557737 134.657147 
L 147.925497 134.899394 
L 145.96312 135.620721 
L 143.368503 136.640845 
L 142.885572 136.845455 
L 140.773886 137.703217 
L 138.287277 138.791515 
L 138.179269 138.836866 
L 135.584652 140.019674 
L 134.138411 140.737576 
L 132.990036 141.28379 
L 130.395419 142.634741 
L 130.3105 142.683636 
L 127.800802 144.06612 
L 126.879918 144.629697 
L 125.206185 145.609526 
L 123.733235 146.575758 
L 122.611568 147.27932 
L 120.861695 148.521818 
L 120.016951 149.094978 
L 118.251138 150.467879 
L 117.422334 151.083074 
L 115.880518 152.413939 
L 114.827718 153.280546 
L 113.720179 154.36 
L 112.233101 155.74038 
L 111.729834 156.306061 
L 109.912229 158.252121 
L 109.638484 158.531452 
L 108.32854 160.198182 
L 107.043867 161.749081 
L 106.791154 162.144242 
L 105.48684 164.090303 
L 104.44925 165.556705 
L 104.201111 166.036364 
L 103.146454 167.982424 
L 102.031048 169.928485 
L 101.854633 170.221366 
L 101.186 171.874545 
L 100.357861 173.820606 
L 99.480784 175.766667 
L 99.260017 176.231812 
L 98.850577 177.712727 
L 98.28697 179.658788 
L 97.692457 181.604848 
L 97.061885 183.550909 
L 96.6654 184.705674 
L 96.548111 185.49697 
L 96.249061 187.44303 
L 95.937418 189.389091 
L 95.610479 191.335152 
L 95.265412 193.281212 
L 94.899226 195.227273 
L 94.508749 197.173333 
L 94.090599 199.119394 
L 94.070783 199.206758 
L 94.026686 201.065455 
L 93.984495 203.011515 
L 93.946054 204.957576 
L 93.911028 206.903636 
L 93.879116 208.849697 
L 93.850039 210.795758 
L 93.823546 212.741818 
L 93.799407 214.687879 
L 93.777413 216.633939 
L 93.757374 218.58 
z
" style="fill:#251433;"/>
   </g>
   <g id="PathCollection_2">
    <path clip-path="url(#p3af847143a)" d="M 93.777413 216.633939 
L 93.799407 214.687879 
L 93.823546 212.741818 
L 93.850039 210.795758 
L 93.879116 208.849697 
L 93.911028 206.903636 
L 93.946054 204.957576 
L 93.984495 203.011515 
L 94.026686 201.065455 
L 94.070783 199.206758 
L 94.090599 199.119394 
L 94.508749 197.173333 
L 94.899226 195.227273 
L 95.265412 193.281212 
L 95.610479 191.335152 
L 95.937418 189.389091 
L 96.249061 187.44303 
L 96.548111 185.49697 
L 96.6654 184.705674 
L 97.061885 183.550909 
L 97.692457 181.604848 
L 98.28697 179.658788 
L 98.850577 177.712727 
L 99.260017 176.231812 
L 99.480784 175.766667 
L 100.357861 173.820606 
L 101.186 171.874545 
L 101.854633 170.221366 
L 102.031048 169.928485 
L 103.146454 167.982424 
L 104.201111 166.036364 
L 104.44925 165.556705 
L 105.48684 164.090303 
L 106.791154 162.144242 
L 107.043867 161.749081 
L 108.32854 160.198182 
L 109.638484 158.531452 
L 109.912229 158.252121 
L 111.729834 156.306061 
L 112.233101 155.74038 
L 113.720179 154.36 
L 114.827718 153.280546 
L 115.880518 152.413939 
L 117.422334 151.083074 
L 118.251138 150.467879 
L 120.016951 149.094978 
L 120.861695 148.521818 
L 122.611568 147.27932 
L 123.733235 146.575758 
L 125.206185 145.609526 
L 126.879918 144.629697 
L 127.800802 144.06612 
L 130.3105 142.683636 
L 130.395419 142.634741 
L 132.990036 141.28379 
L 134.138411 140.737576 
L 135.584652 140.019674 
L 138.179269 138.836866 
L 138.287277 138.791515 
L 140.773886 137.703217 
L 142.885572 136.845455 
L 143.368503 136.640845 
L 145.96312 135.620721 
L 147.925497 134.899394 
L 148.557737 134.657147 
L 151.152353 133.72808 
L 153.451746 132.953333 
L 153.74697 132.849679 
L 156.341587 131.994021 
L 158.936204 131.184831 
L 159.538304 131.007273 
L 161.530821 130.395818 
L 164.125438 129.64073 
L 166.218734 129.061212 
L 166.720054 128.916742 
L 169.314671 128.206634 
L 171.909288 127.528888 
L 173.566947 127.115152 
L 174.503905 126.871878 
L 177.098522 126.228651 
L 179.693139 125.612084 
L 181.635549 125.169091 
L 182.287755 125.014401 
L 184.882372 124.424682 
L 187.476989 123.857504 
L 190.071606 123.311017 
L 190.505676 123.22303 
L 192.666223 122.768035 
L 195.26084 122.241314 
L 197.855457 121.732583 
L 200.258387 121.27697 
L 200.450073 121.239195 
L 203.04469 120.74593 
L 205.639307 120.268596 
L 208.233924 119.806083 
L 210.828541 119.357391 
L 210.98664 119.330909 
L 213.423158 118.907229 
L 216.017774 118.469498 
L 218.612391 118.044296 
L 221.207008 117.630843 
L 222.794659 117.384848 
L 223.801625 117.222863 
L 226.396242 116.817404 
L 228.990859 116.422773 
L 231.585475 116.03834 
L 234.180092 115.663529 
L 235.775978 115.438788 
L 236.774709 115.292819 
L 239.369326 114.923484 
L 241.963943 114.563165 
L 244.55856 114.211383 
L 247.153176 113.867695 
L 249.747793 113.531691 
L 250.055944 113.492727 
L 252.34241 113.192893 
L 254.937027 112.8604 
L 257.531644 112.535221 
L 260.126261 112.217004 
L 262.720878 111.905422 
L 265.315494 111.600169 
L 265.780203 111.546667 
L 267.910111 111.292429 
L 270.504728 110.989187 
L 273.099345 110.692051 
L 275.693962 110.400751 
L 278.288579 110.115035 
L 280.883195 109.834667 
L 283.0902 109.600606 
L 283.477812 109.557986 
L 286.072429 109.278413 
L 288.667046 109.004062 
L 291.261663 108.734718 
L 293.85628 108.470179 
L 296.450896 108.210257 
L 299.045513 107.954774 
L 301.64013 107.703561 
L 302.155484 107.654545 
L 304.234747 107.449665 
L 306.829364 107.198442 
L 309.423981 106.951435 
L 312.018597 106.70849 
L 314.613214 106.469458 
L 317.207831 106.234201 
L 319.802448 106.002585 
L 322.397065 105.774486 
L 323.159985 105.708485 
L 324.991682 105.544376 
L 327.586298 105.315614 
L 330.180915 105.09036 
L 332.775532 104.868495 
L 335.370149 104.649907 
L 337.964766 104.434487 
L 340.559383 104.222135 
L 343.154 104.012753 
L 345.748616 103.806248 
L 346.307377 103.762424 
L 348.343233 103.597139 
L 348.343233 101.816364 
L 348.343233 99.870303 
L 348.343233 97.924242 
L 348.343233 95.978182 
L 348.343233 94.032121 
L 348.343233 92.086061 
L 348.343233 90.14 
L 348.343233 88.193939 
L 348.343233 86.247879 
L 348.343233 84.301818 
L 348.343233 83.905793 
L 345.748616 84.10973 
L 343.34875 84.301818 
L 343.154 84.316439 
L 340.559383 84.514168 
L 337.964766 84.715385 
L 335.370149 84.920227 
L 332.775532 85.128834 
L 330.180915 85.341358 
L 327.586298 85.557959 
L 324.991682 85.778804 
L 322.397065 86.004073 
L 319.802448 86.233957 
L 319.648014 86.247879 
L 317.207831 86.454 
L 314.613214 86.677413 
L 312.018597 86.905292 
L 309.423981 87.137832 
L 306.829364 87.375241 
L 304.234747 87.617739 
L 301.64013 87.865562 
L 299.045513 88.118961 
L 298.292972 88.193939 
L 296.450896 88.365892 
L 293.85628 88.613102 
L 291.261663 88.865778 
L 288.667046 89.124186 
L 286.072429 89.388608 
L 283.477812 89.659348 
L 280.883195 89.936733 
L 279.026335 90.14 
L 278.288579 90.21568 
L 275.693962 90.487499 
L 273.099345 90.765923 
L 270.504728 91.051304 
L 267.910111 91.344022 
L 265.315494 91.644486 
L 262.720878 91.95314 
L 261.630954 92.086061 
L 260.126261 92.25796 
L 257.531644 92.561732 
L 254.937027 92.873775 
L 252.34241 93.194582 
L 249.747793 93.524691 
L 247.153176 93.864686 
L 245.910296 94.032121 
L 244.55856 94.202716 
L 241.963943 94.539073 
L 239.369326 94.885586 
L 236.774709 95.242929 
L 234.180092 95.611842 
L 231.686686 95.978182 
L 231.585475 95.992121 
L 228.990859 96.359285 
L 226.396242 96.738547 
L 223.801625 97.13079 
L 221.207008 97.536986 
L 218.820446 97.924242 
L 218.612391 97.955895 
L 216.017774 98.362699 
L 213.423158 98.784399 
L 210.828541 99.222201 
L 208.233924 99.677458 
L 207.174205 99.870303 
L 205.639307 100.132097 
L 203.04469 100.59118 
L 200.450073 101.069359 
L 197.855457 101.56839 
L 196.617367 101.816364 
L 195.26084 102.07113 
L 192.666223 102.578306 
L 190.071606 103.108873 
L 187.476989 103.665227 
L 187.042494 103.762424 
L 184.882372 104.215549 
L 182.287755 104.786027 
L 179.693139 105.38632 
L 178.367407 105.708485 
L 177.098522 105.997934 
L 174.503905 106.619181 
L 171.909288 107.275877 
L 170.492042 107.654545 
L 169.314671 107.950052 
L 166.720054 108.636784 
L 164.125438 109.367088 
L 163.342029 109.600606 
L 161.530821 110.107965 
L 158.936204 110.881159 
L 156.848058 111.546667 
L 156.341587 111.698609 
L 153.74697 112.526022 
L 151.152353 113.417425 
L 150.947318 113.492727 
L 148.557737 114.31876 
L 145.96312 115.290208 
L 145.594559 115.438788 
L 143.368503 116.284519 
L 140.773886 117.360074 
L 140.718697 117.384848 
L 138.179269 118.460428 
L 136.309508 119.330909 
L 135.584652 119.650043 
L 132.990036 120.902805 
L 132.288092 121.27697 
L 130.395419 122.232174 
L 128.632766 123.22303 
L 127.800802 123.666729 
L 125.285045 125.169091 
L 125.206185 125.213855 
L 122.611568 126.8678 
L 122.270068 127.115152 
L 120.016951 128.67034 
L 119.523328 129.061212 
L 117.422334 130.650802 
L 117.016071 131.007273 
L 114.827718 132.847795 
L 114.720942 132.953333 
L 112.66308 134.899394 
L 112.233101 135.289808 
L 110.799892 136.845455 
L 109.638484 138.063548 
L 109.070052 138.791515 
L 107.497106 140.737576 
L 107.043867 141.276541 
L 106.103174 142.683636 
L 104.769521 144.629697 
L 104.44925 145.077918 
L 103.632754 146.575758 
L 102.548225 148.521818 
L 101.854633 149.727208 
L 101.548276 150.467879 
L 100.71856 152.413939 
L 99.874625 154.36 
L 99.260017 155.732812 
L 99.093498 156.306061 
L 98.511309 158.252121 
L 97.922709 160.198182 
L 97.322579 162.144242 
L 96.705703 164.090303 
L 96.6654 164.211077 
L 96.350319 166.036364 
L 96.015311 167.982424 
L 95.6792 169.928485 
L 95.339065 171.874545 
L 94.991954 173.820606 
L 94.634854 175.766667 
L 94.264667 177.712727 
L 94.070783 178.682195 
L 94.02427 179.658788 
L 93.936151 181.604848 
L 93.855869 183.550909 
L 93.782726 185.49697 
L 93.716087 187.44303 
L 93.655374 189.389091 
L 93.600058 191.335152 
L 93.549659 193.281212 
L 93.503741 195.227273 
L 93.461904 197.173333 
L 93.423786 199.119394 
L 93.389056 201.065455 
L 93.357413 203.011515 
L 93.328582 204.957576 
L 93.302313 206.903636 
L 93.278378 208.849697 
L 93.256571 210.795758 
L 93.236701 212.741818 
L 93.218597 214.687879 
L 93.202102 216.633939 
L 93.187072 218.58 
L 93.757374 218.58 
z
" style="fill:#751f58;"/>
   </g>
   <g id="PathCollection_3">
    <path clip-path="url(#p3af847143a)" d="M 93.202102 216.633939 
L 93.218597 214.687879 
L 93.236701 212.741818 
L 93.256571 210.795758 
L 93.278378 208.849697 
L 93.302313 206.903636 
L 93.328582 204.957576 
L 93.357413 203.011515 
L 93.389056 201.065455 
L 93.423786 199.119394 
L 93.461904 197.173333 
L 93.503741 195.227273 
L 93.549659 193.281212 
L 93.600058 191.335152 
L 93.655374 189.389091 
L 93.716087 187.44303 
L 93.782726 185.49697 
L 93.855869 183.550909 
L 93.936151 181.604848 
L 94.02427 179.658788 
L 94.070783 178.682195 
L 94.264667 177.712727 
L 94.634854 175.766667 
L 94.991954 173.820606 
L 95.339065 171.874545 
L 95.6792 169.928485 
L 96.015311 167.982424 
L 96.350319 166.036364 
L 96.6654 164.211077 
L 96.705703 164.090303 
L 97.322579 162.144242 
L 97.922709 160.198182 
L 98.511309 158.252121 
L 99.093498 156.306061 
L 99.260017 155.732812 
L 99.874625 154.36 
L 100.71856 152.413939 
L 101.548276 150.467879 
L 101.854633 149.727208 
L 102.548225 148.521818 
L 103.632754 146.575758 
L 104.44925 145.077918 
L 104.769521 144.629697 
L 106.103174 142.683636 
L 107.043867 141.276541 
L 107.497106 140.737576 
L 109.070052 138.791515 
L 109.638484 138.063548 
L 110.799892 136.845455 
L 112.233101 135.289808 
L 112.66308 134.899394 
L 114.720942 132.953333 
L 114.827718 132.847795 
L 117.016071 131.007273 
L 117.422334 130.650802 
L 119.523328 129.061212 
L 120.016951 128.67034 
L 122.270068 127.115152 
L 122.611568 126.8678 
L 125.206185 125.213855 
L 125.285045 125.169091 
L 127.800802 123.666729 
L 128.632766 123.22303 
L 130.395419 122.232174 
L 132.288092 121.27697 
L 132.990036 120.902805 
L 135.584652 119.650043 
L 136.309508 119.330909 
L 138.179269 118.460428 
L 140.718697 117.384848 
L 140.773886 117.360074 
L 143.368503 116.284519 
L 145.594559 115.438788 
L 145.96312 115.290208 
L 148.557737 114.31876 
L 150.947318 113.492727 
L 151.152353 113.417425 
L 153.74697 112.526022 
L 156.341587 111.698609 
L 156.848058 111.546667 
L 158.936204 110.881159 
L 161.530821 110.107965 
L 163.342029 109.600606 
L 164.125438 109.367088 
L 166.720054 108.636784 
L 169.314671 107.950052 
L 170.492042 107.654545 
L 171.909288 107.275877 
L 174.503905 106.619181 
L 177.098522 105.997934 
L 178.367407 105.708485 
L 179.693139 105.38632 
L 182.287755 104.786027 
L 184.882372 104.215549 
L 187.042494 103.762424 
L 187.476989 103.665227 
L 190.071606 103.108873 
L 192.666223 102.578306 
L 195.26084 102.07113 
L 196.617367 101.816364 
L 197.855457 101.56839 
L 200.450073 101.069359 
L 203.04469 100.59118 
L 205.639307 100.132097 
L 207.174205 99.870303 
L 208.233924 99.677458 
L 210.828541 99.222201 
L 213.423158 98.784399 
L 216.017774 98.362699 
L 218.612391 97.955895 
L 218.820446 97.924242 
L 221.207008 97.536986 
L 223.801625 97.13079 
L 226.396242 96.738547 
L 228.990859 96.359285 
L 231.585475 95.992121 
L 231.686686 95.978182 
L 234.180092 95.611842 
L 236.774709 95.242929 
L 239.369326 94.885586 
L 241.963943 94.539073 
L 244.55856 94.202716 
L 245.910296 94.032121 
L 247.153176 93.864686 
L 249.747793 93.524691 
L 252.34241 93.194582 
L 254.937027 92.873775 
L 257.531644 92.561732 
L 260.126261 92.25796 
L 261.630954 92.086061 
L 262.720878 91.95314 
L 265.315494 91.644486 
L 267.910111 91.344022 
L 270.504728 91.051304 
L 273.099345 90.765923 
L 275.693962 90.487499 
L 278.288579 90.21568 
L 279.026335 90.14 
L 280.883195 89.936733 
L 283.477812 89.659348 
L 286.072429 89.388608 
L 288.667046 89.124186 
L 291.261663 88.865778 
L 293.85628 88.613102 
L 296.450896 88.365892 
L 298.292972 88.193939 
L 299.045513 88.118961 
L 301.64013 87.865562 
L 304.234747 87.617739 
L 306.829364 87.375241 
L 309.423981 87.137832 
L 312.018597 86.905292 
L 314.613214 86.677413 
L 317.207831 86.454 
L 319.648014 86.247879 
L 319.802448 86.233957 
L 322.397065 86.004073 
L 324.991682 85.778804 
L 327.586298 85.557959 
L 330.180915 85.341358 
L 332.775532 85.128834 
L 335.370149 84.920227 
L 337.964766 84.715385 
L 340.559383 84.514168 
L 343.154 84.316439 
L 343.34875 84.301818 
L 345.748616 84.10973 
L 348.343233 83.905793 
L 348.343233 82.355758 
L 348.343233 80.409697 
L 348.343233 78.463636 
L 348.343233 76.517576 
L 348.343233 74.571515 
L 348.343233 72.625455 
L 348.343233 70.679394 
L 348.343233 68.733333 
L 348.343233 68.517466 
L 345.748616 68.710745 
L 345.450162 68.733333 
L 343.154 68.891457 
L 340.559383 69.073719 
L 337.964766 69.259842 
L 335.370149 69.449989 
L 332.775532 69.644333 
L 330.180915 69.843055 
L 327.586298 70.04635 
L 324.991682 70.254422 
L 322.397065 70.46749 
L 319.877867 70.679394 
L 319.802448 70.685169 
L 317.207831 70.887068 
L 314.613214 71.093686 
L 312.018597 71.305244 
L 309.423981 71.521975 
L 306.829364 71.744128 
L 304.234747 71.971972 
L 301.64013 72.20579 
L 299.045513 72.44589 
L 297.152564 72.625455 
L 296.450896 72.686024 
L 293.85628 72.914502 
L 291.261663 73.149001 
L 288.667046 73.389836 
L 286.072429 73.637346 
L 283.477812 73.891897 
L 280.883195 74.153881 
L 278.288579 74.423722 
L 276.903665 74.571515 
L 275.693962 74.688979 
L 273.099345 74.947029 
L 270.504728 75.212736 
L 267.910111 75.486553 
L 265.315494 75.768969 
L 262.720878 76.060515 
L 260.126261 76.361772 
L 258.821818 76.517576 
L 257.531644 76.657825 
L 254.937027 76.947595 
L 252.34241 77.247001 
L 249.747793 77.556682 
L 247.153176 77.877334 
L 244.55856 78.209725 
L 242.642772 78.463636 
L 241.963943 78.545579 
L 239.369326 78.867475 
L 236.774709 79.201251 
L 234.180092 79.547783 
L 231.585475 79.90804 
L 228.990859 80.283094 
L 228.143068 80.409697 
L 226.396242 80.647316 
L 223.801625 81.013087 
L 221.207008 81.394185 
L 218.612391 81.791892 
L 216.017774 82.207644 
L 215.126315 82.355758 
L 213.423158 82.61374 
L 210.828541 83.022567 
L 208.233924 83.450551 
L 205.639307 83.899487 
L 203.422014 84.301818 
L 203.04469 84.364345 
L 200.450073 84.809893 
L 197.855457 85.27824 
L 195.26084 85.771735 
L 192.887487 86.247879 
L 192.666223 86.288472 
L 190.071606 86.783125 
L 187.476989 87.305942 
L 184.882372 87.860164 
L 183.400117 88.193939 
L 182.287755 88.423212 
L 179.693139 88.985052 
L 177.098522 89.583316 
L 174.833404 90.14 
L 174.503905 90.214278 
L 171.909288 90.827922 
L 169.314671 91.485206 
L 167.102373 92.086061 
L 166.720054 92.181481 
L 164.125438 92.864704 
L 161.530821 93.602283 
L 160.120375 94.032121 
L 158.936204 94.364312 
L 156.341587 95.143346 
L 153.792206 95.978182 
L 153.74697 95.991858 
L 151.152353 96.826135 
L 148.557737 97.742506 
L 148.079828 97.924242 
L 145.96312 98.668675 
L 143.368503 99.6741 
L 142.901587 99.870303 
L 140.773886 100.699751 
L 138.201812 101.816364 
L 138.179269 101.825477 
L 135.584652 102.964947 
L 133.962205 103.762424 
L 132.990036 104.208964 
L 130.395419 105.538516 
L 130.096591 105.708485 
L 127.800802 106.934235 
L 126.607802 107.654545 
L 125.206185 108.452292 
L 123.429217 109.600606 
L 122.611568 110.100897 
L 120.540708 111.546667 
L 120.016951 111.894556 
L 117.920984 113.492727 
L 117.422334 113.856465 
L 115.546655 115.438788 
L 114.827718 116.022869 
L 113.391189 117.384848 
L 112.233101 118.451361 
L 111.423735 119.330909 
L 109.638484 121.237764 
L 109.607801 121.27697 
L 108.017466 123.22303 
L 107.043867 124.40731 
L 106.530495 125.169091 
L 105.194418 127.115152 
L 104.44925 128.188606 
L 103.965897 129.061212 
L 102.872958 131.007273 
L 101.854633 132.845912 
L 101.808926 132.953333 
L 100.948512 134.899394 
L 100.107865 136.845455 
L 99.279565 138.791515 
L 99.260017 138.835255 
L 98.654578 140.737576 
L 98.051795 142.683636 
L 97.461322 144.629697 
L 96.877979 146.575758 
L 96.6654 147.262689 
L 96.423209 148.521818 
L 96.054163 150.467879 
L 95.697954 152.413939 
L 95.351469 154.36 
L 95.011679 156.306061 
L 94.675621 158.252121 
L 94.340365 160.198182 
L 94.070783 161.737151 
L 94.04204 162.144242 
L 93.90611 164.090303 
L 93.782287 166.036364 
L 93.669491 167.982424 
L 93.566736 169.928485 
L 93.473128 171.874545 
L 93.38785 173.820606 
L 93.310161 175.766667 
L 93.239383 177.712727 
L 93.174902 179.658788 
L 93.116156 181.604848 
L 93.062635 183.550909 
L 93.013873 185.49697 
L 92.969447 187.44303 
L 92.928971 189.389091 
L 92.892094 191.335152 
L 92.858495 193.281212 
L 92.827883 195.227273 
L 92.799992 197.173333 
L 92.77458 199.119394 
L 92.751426 201.065455 
L 92.730331 203.011515 
L 92.71111 204.957576 
L 92.693597 206.903636 
L 92.677641 208.849697 
L 92.663102 210.795758 
L 92.649856 212.741818 
L 92.637787 214.687879 
L 92.62679 216.633939 
L 92.61677 218.58 
L 93.187072 218.58 
z
" style="fill:#cb1b4f;"/>
   </g>
   <g id="PathCollection_4">
    <path clip-path="url(#p3af847143a)" d="M 92.62679 216.633939 
L 92.637787 214.687879 
L 92.649856 212.741818 
L 92.663102 210.795758 
L 92.677641 208.849697 
L 92.693597 206.903636 
L 92.71111 204.957576 
L 92.730331 203.011515 
L 92.751426 201.065455 
L 92.77458 199.119394 
L 92.799992 197.173333 
L 92.827883 195.227273 
L 92.858495 193.281212 
L 92.892094 191.335152 
L 92.928971 189.389091 
L 92.969447 187.44303 
L 93.013873 185.49697 
L 93.062635 183.550909 
L 93.116156 181.604848 
L 93.174902 179.658788 
L 93.239383 177.712727 
L 93.310161 175.766667 
L 93.38785 173.820606 
L 93.473128 171.874545 
L 93.566736 169.928485 
L 93.669491 167.982424 
L 93.782287 166.036364 
L 93.90611 164.090303 
L 94.04204 162.144242 
L 94.070783 161.737151 
L 94.340365 160.198182 
L 94.675621 158.252121 
L 95.011679 156.306061 
L 95.351469 154.36 
L 95.697954 152.413939 
L 96.054163 150.467879 
L 96.423209 148.521818 
L 96.6654 147.262689 
L 96.877979 146.575758 
L 97.461322 144.629697 
L 98.051795 142.683636 
L 98.654578 140.737576 
L 99.260017 138.835255 
L 99.279565 138.791515 
L 100.107865 136.845455 
L 100.948512 134.899394 
L 101.808926 132.953333 
L 101.854633 132.845912 
L 102.872958 131.007273 
L 103.965897 129.061212 
L 104.44925 128.188606 
L 105.194418 127.115152 
L 106.530495 125.169091 
L 107.043867 124.40731 
L 108.017466 123.22303 
L 109.607801 121.27697 
L 109.638484 121.237764 
L 111.423735 119.330909 
L 112.233101 118.451361 
L 113.391189 117.384848 
L 114.827718 116.022869 
L 115.546655 115.438788 
L 117.422334 113.856465 
L 117.920984 113.492727 
L 120.016951 111.894556 
L 120.540708 111.546667 
L 122.611568 110.100897 
L 123.429217 109.600606 
L 125.206185 108.452292 
L 126.607802 107.654545 
L 127.800802 106.934235 
L 130.096591 105.708485 
L 130.395419 105.538516 
L 132.990036 104.208964 
L 133.962205 103.762424 
L 135.584652 102.964947 
L 138.179269 101.825477 
L 138.201812 101.816364 
L 140.773886 100.699751 
L 142.901587 99.870303 
L 143.368503 99.6741 
L 145.96312 98.668675 
L 148.079828 97.924242 
L 148.557737 97.742506 
L 151.152353 96.826135 
L 153.74697 95.991858 
L 153.792206 95.978182 
L 156.341587 95.143346 
L 158.936204 94.364312 
L 160.120375 94.032121 
L 161.530821 93.602283 
L 164.125438 92.864704 
L 166.720054 92.181481 
L 167.102373 92.086061 
L 169.314671 91.485206 
L 171.909288 90.827922 
L 174.503905 90.214278 
L 174.833404 90.14 
L 177.098522 89.583316 
L 179.693139 88.985052 
L 182.287755 88.423212 
L 183.400117 88.193939 
L 184.882372 87.860164 
L 187.476989 87.305942 
L 190.071606 86.783125 
L 192.666223 86.288472 
L 192.887487 86.247879 
L 195.26084 85.771735 
L 197.855457 85.27824 
L 200.450073 84.809893 
L 203.04469 84.364345 
L 203.422014 84.301818 
L 205.639307 83.899487 
L 208.233924 83.450551 
L 210.828541 83.022567 
L 213.423158 82.61374 
L 215.126315 82.355758 
L 216.017774 82.207644 
L 218.612391 81.791892 
L 221.207008 81.394185 
L 223.801625 81.013087 
L 226.396242 80.647316 
L 228.143068 80.409697 
L 228.990859 80.283094 
L 231.585475 79.90804 
L 234.180092 79.547783 
L 236.774709 79.201251 
L 239.369326 78.867475 
L 241.963943 78.545579 
L 242.642772 78.463636 
L 244.55856 78.209725 
L 247.153176 77.877334 
L 249.747793 77.556682 
L 252.34241 77.247001 
L 254.937027 76.947595 
L 257.531644 76.657825 
L 258.821818 76.517576 
L 260.126261 76.361772 
L 262.720878 76.060515 
L 265.315494 75.768969 
L 267.910111 75.486553 
L 270.504728 75.212736 
L 273.099345 74.947029 
L 275.693962 74.688979 
L 276.903665 74.571515 
L 278.288579 74.423722 
L 280.883195 74.153881 
L 283.477812 73.891897 
L 286.072429 73.637346 
L 288.667046 73.389836 
L 291.261663 73.149001 
L 293.85628 72.914502 
L 296.450896 72.686024 
L 297.152564 72.625455 
L 299.045513 72.44589 
L 301.64013 72.20579 
L 304.234747 71.971972 
L 306.829364 71.744128 
L 309.423981 71.521975 
L 312.018597 71.305244 
L 314.613214 71.093686 
L 317.207831 70.887068 
L 319.802448 70.685169 
L 319.877867 70.679394 
L 322.397065 70.46749 
L 324.991682 70.254422 
L 327.586298 70.04635 
L 330.180915 69.843055 
L 332.775532 69.644333 
L 335.370149 69.449989 
L 337.964766 69.259842 
L 340.559383 69.073719 
L 343.154 68.891457 
L 345.450162 68.733333 
L 345.748616 68.710745 
L 348.343233 68.517466 
L 348.343233 66.787273 
L 348.343233 64.841212 
L 348.343233 62.895152 
L 348.343233 60.949091 
L 348.343233 59.00303 
L 348.343233 57.05697 
L 348.343233 55.110909 
L 348.343233 53.164848 
L 348.343233 52.092724 
L 345.748616 52.244458 
L 343.154 52.399832 
L 340.559383 52.559 
L 337.964766 52.722123 
L 335.370149 52.889373 
L 332.775532 53.060932 
L 331.237272 53.164848 
L 330.180915 53.227861 
L 327.586298 53.385529 
L 324.991682 53.547168 
L 322.397065 53.712954 
L 319.802448 53.883078 
L 317.207831 54.057739 
L 314.613214 54.237151 
L 312.018597 54.42154 
L 309.423981 54.61115 
L 306.829364 54.80624 
L 304.234747 55.007085 
L 302.924586 55.110909 
L 301.64013 55.200773 
L 299.045513 55.386394 
L 296.450896 55.577411 
L 293.85628 55.774103 
L 291.261663 55.976768 
L 288.667046 56.185727 
L 286.072429 56.401326 
L 283.477812 56.623934 
L 280.883195 56.853951 
L 278.664034 57.05697 
L 278.288579 57.087313 
L 275.693962 57.301395 
L 273.099345 57.522557 
L 270.504728 57.751218 
L 267.910111 57.987827 
L 265.315494 58.232875 
L 262.720878 58.486893 
L 260.126261 58.750459 
L 257.729364 59.00303 
L 257.531644 59.02145 
L 254.937027 59.268659 
L 252.34241 59.525189 
L 249.747793 59.791668 
L 247.153176 60.068782 
L 244.55856 60.357283 
L 241.963943 60.658001 
L 239.554286 60.949091 
L 239.369326 60.968865 
L 236.774709 61.253382 
L 234.180092 61.550111 
L 231.585475 61.859989 
L 228.990859 62.184056 
L 226.396242 62.523467 
L 223.801625 62.879507 
L 223.690896 62.895152 
L 221.207008 63.205859 
L 218.612391 63.545895 
L 216.017774 63.903046 
L 213.423158 64.278851 
L 210.828541 64.675048 
L 209.78381 64.841212 
L 208.233924 65.05992 
L 205.639307 65.442594 
L 203.04469 65.846865 
L 200.450073 66.274921 
L 197.855457 66.729268 
L 197.536768 66.787273 
L 195.26084 67.155427 
L 192.666223 67.599813 
L 190.071606 68.073027 
L 187.476989 68.57844 
L 186.718939 68.733333 
L 184.882372 69.067722 
L 182.287755 69.568921 
L 179.693139 70.106708 
L 177.126848 70.679394 
L 177.098522 70.685047 
L 174.503905 71.225817 
L 171.909288 71.809559 
L 169.314671 72.442505 
L 168.607321 72.625455 
L 166.720054 73.063001 
L 164.125438 73.711493 
L 161.530821 74.420919 
L 161.01323 74.571515 
L 158.936204 75.115148 
L 156.341587 75.856246 
L 154.232524 76.517576 
L 153.74697 76.655157 
L 151.152353 77.442398 
L 148.557737 78.320651 
L 148.165425 78.463636 
L 145.96312 79.191998 
L 143.368503 80.151953 
L 142.729526 80.409697 
L 140.773886 81.129216 
L 138.179269 82.204929 
L 137.8464 82.355758 
L 135.584652 83.295992 
L 133.459461 84.301818 
L 132.990036 84.506752 
L 130.395419 85.764668 
L 129.512623 86.247879 
L 127.800802 87.118873 
L 125.952917 88.193939 
L 125.206185 88.600317 
L 122.735733 90.14 
L 122.611568 90.212875 
L 120.016951 91.948281 
L 119.837439 92.086061 
L 117.422334 93.858708 
L 117.217961 94.032121 
L 114.844776 95.978182 
L 114.827718 95.991594 
L 112.709186 97.924242 
L 112.233101 98.349738 
L 110.774892 99.870303 
L 109.638484 101.051712 
L 109.012385 101.816364 
L 107.412974 103.762424 
L 107.043867 104.202382 
L 105.978744 105.708485 
L 104.650449 107.654545 
L 104.44925 107.940611 
L 103.478424 109.600606 
L 102.389557 111.546667 
L 101.854633 112.507634 
L 101.407248 113.492727 
L 100.531587 115.438788 
L 99.705345 117.384848 
L 99.260017 118.442299 
L 98.964619 119.330909 
L 98.321484 121.27697 
L 97.716568 123.22303 
L 97.144374 125.169091 
L 96.6654 126.859646 
L 96.611769 127.115152 
L 96.192959 129.061212 
L 95.802195 131.007273 
L 95.435971 132.953333 
L 95.091013 134.899394 
L 94.76425 136.845455 
L 94.452783 138.791515 
L 94.153856 140.737576 
L 94.070783 141.262051 
L 93.936575 142.683636 
L 93.763505 144.629697 
L 93.605911 146.575758 
L 93.462402 148.521818 
L 93.331711 150.467879 
L 93.212687 152.413939 
L 93.104286 154.36 
L 93.005554 156.306061 
L 92.915626 158.252121 
L 92.833715 160.198182 
L 92.759103 162.144242 
L 92.691138 164.090303 
L 92.629227 166.036364 
L 92.572828 167.982424 
L 92.521451 169.928485 
L 92.474647 171.874545 
L 92.432008 173.820606 
L 92.393163 175.766667 
L 92.357775 177.712727 
L 92.325534 179.658788 
L 92.296161 181.604848 
L 92.2694 183.550909 
L 92.245019 185.49697 
L 92.222806 187.44303 
L 92.202569 189.389091 
L 92.18413 191.335152 
L 92.16733 193.281212 
L 92.152024 195.227273 
L 92.138079 197.173333 
L 92.125373 199.119394 
L 92.113796 201.065455 
L 92.103248 203.011515 
L 92.093638 204.957576 
L 92.084882 206.903636 
L 92.076903 208.849697 
L 92.069634 210.795758 
L 92.063011 212.741818 
L 92.056976 214.687879 
L 92.051478 216.633939 
L 92.046468 218.58 
L 92.61677 218.58 
z
" style="fill:#f3714d;"/>
   </g>
   <g id="PathCollection_5">
    <path clip-path="url(#p3af847143a)" d="M 92.051478 216.633939 
L 92.056976 214.687879 
L 92.063011 212.741818 
L 92.069634 210.795758 
L 92.076903 208.849697 
L 92.084882 206.903636 
L 92.093638 204.957576 
L 92.103248 203.011515 
L 92.113796 201.065455 
L 92.125373 199.119394 
L 92.138079 197.173333 
L 92.152024 195.227273 
L 92.16733 193.281212 
L 92.18413 191.335152 
L 92.202569 189.389091 
L 92.222806 187.44303 
L 92.245019 185.49697 
L 92.2694 183.550909 
L 92.296161 181.604848 
L 92.325534 179.658788 
L 92.357775 177.712727 
L 92.393163 175.766667 
L 92.432008 173.820606 
L 92.474647 171.874545 
L 92.521451 169.928485 
L 92.572828 167.982424 
L 92.629227 166.036364 
L 92.691138 164.090303 
L 92.759103 162.144242 
L 92.833715 160.198182 
L 92.915626 158.252121 
L 93.005554 156.306061 
L 93.104286 154.36 
L 93.212687 152.413939 
L 93.331711 150.467879 
L 93.462402 148.521818 
L 93.605911 146.575758 
L 93.763505 144.629697 
L 93.936575 142.683636 
L 94.070783 141.262051 
L 94.153856 140.737576 
L 94.452783 138.791515 
L 94.76425 136.845455 
L 95.091013 134.899394 
L 95.435971 132.953333 
L 95.802195 131.007273 
L 96.192959 129.061212 
L 96.611769 127.115152 
L 96.6654 126.859646 
L 97.144374 125.169091 
L 97.716568 123.22303 
L 98.321484 121.27697 
L 98.964619 119.330909 
L 99.260017 118.442299 
L 99.705345 117.384848 
L 100.531587 115.438788 
L 101.407248 113.492727 
L 101.854633 112.507634 
L 102.389557 111.546667 
L 103.478424 109.600606 
L 104.44925 107.940611 
L 104.650449 107.654545 
L 105.978744 105.708485 
L 107.043867 104.202382 
L 107.412974 103.762424 
L 109.012385 101.816364 
L 109.638484 101.051712 
L 110.774892 99.870303 
L 112.233101 98.349738 
L 112.709186 97.924242 
L 114.827718 95.991594 
L 114.844776 95.978182 
L 117.217961 94.032121 
L 117.422334 93.858708 
L 119.837439 92.086061 
L 120.016951 91.948281 
L 122.611568 90.212875 
L 122.735733 90.14 
L 125.206185 88.600317 
L 125.952917 88.193939 
L 127.800802 87.118873 
L 129.512623 86.247879 
L 130.395419 85.764668 
L 132.990036 84.506752 
L 133.459461 84.301818 
L 135.584652 83.295992 
L 137.8464 82.355758 
L 138.179269 82.204929 
L 140.773886 81.129216 
L 142.729526 80.409697 
L 143.368503 80.151953 
L 145.96312 79.191998 
L 148.165425 78.463636 
L 148.557737 78.320651 
L 151.152353 77.442398 
L 153.74697 76.655157 
L 154.232524 76.517576 
L 156.341587 75.856246 
L 158.936204 75.115148 
L 161.01323 74.571515 
L 161.530821 74.420919 
L 164.125438 73.711493 
L 166.720054 73.063001 
L 168.607321 72.625455 
L 169.314671 72.442505 
L 171.909288 71.809559 
L 174.503905 71.225817 
L 177.098522 70.685047 
L 177.126848 70.679394 
L 179.693139 70.106708 
L 182.287755 69.568921 
L 184.882372 69.067722 
L 186.718939 68.733333 
L 187.476989 68.57844 
L 190.071606 68.073027 
L 192.666223 67.599813 
L 195.26084 67.155427 
L 197.536768 66.787273 
L 197.855457 66.729268 
L 200.450073 66.274921 
L 203.04469 65.846865 
L 205.639307 65.442594 
L 208.233924 65.05992 
L 209.78381 64.841212 
L 210.828541 64.675048 
L 213.423158 64.278851 
L 216.017774 63.903046 
L 218.612391 63.545895 
L 221.207008 63.205859 
L 223.690896 62.895152 
L 223.801625 62.879507 
L 226.396242 62.523467 
L 228.990859 62.184056 
L 231.585475 61.859989 
L 234.180092 61.550111 
L 236.774709 61.253382 
L 239.369326 60.968865 
L 239.554286 60.949091 
L 241.963943 60.658001 
L 244.55856 60.357283 
L 247.153176 60.068782 
L 249.747793 59.791668 
L 252.34241 59.525189 
L 254.937027 59.268659 
L 257.531644 59.02145 
L 257.729364 59.00303 
L 260.126261 58.750459 
L 262.720878 58.486893 
L 265.315494 58.232875 
L 267.910111 57.987827 
L 270.504728 57.751218 
L 273.099345 57.522557 
L 275.693962 57.301395 
L 278.288579 57.087313 
L 278.664034 57.05697 
L 280.883195 56.853951 
L 283.477812 56.623934 
L 286.072429 56.401326 
L 288.667046 56.185727 
L 291.261663 55.976768 
L 293.85628 55.774103 
L 296.450896 55.577411 
L 299.045513 55.386394 
L 301.64013 55.200773 
L 302.924586 55.110909 
L 304.234747 55.007085 
L 306.829364 54.80624 
L 309.423981 54.61115 
L 312.018597 54.42154 
L 314.613214 54.237151 
L 317.207831 54.057739 
L 319.802448 53.883078 
L 322.397065 53.712954 
L 324.991682 53.547168 
L 327.586298 53.385529 
L 330.180915 53.227861 
L 331.237272 53.164848 
L 332.775532 53.060932 
L 335.370149 52.889373 
L 337.964766 52.722123 
L 340.559383 52.559 
L 343.154 52.399832 
L 345.748616 52.244458 
L 348.343233 52.092724 
L 348.343233 51.218788 
L 348.343233 49.272727 
L 348.343233 47.326667 
L 348.343233 45.380606 
L 348.343233 43.434545 
L 348.343233 41.488485 
L 348.343233 39.542424 
L 348.343233 37.596364 
L 348.343233 35.650303 
L 348.343233 33.704242 
L 348.343233 31.758182 
L 348.343233 29.812121 
L 348.343233 27.866061 
L 348.343233 25.92 
L 345.748616 25.92 
L 343.154 25.92 
L 340.559383 25.92 
L 337.964766 25.92 
L 335.370149 25.92 
L 332.775532 25.92 
L 330.180915 25.92 
L 327.586298 25.92 
L 324.991682 25.92 
L 322.397065 25.92 
L 319.802448 25.92 
L 317.207831 25.92 
L 314.613214 25.92 
L 312.018597 25.92 
L 309.423981 25.92 
L 306.829364 25.92 
L 304.234747 25.92 
L 301.64013 25.92 
L 299.045513 25.92 
L 296.450896 25.92 
L 293.85628 25.92 
L 291.261663 25.92 
L 288.667046 25.92 
L 286.072429 25.92 
L 283.477812 25.92 
L 280.883195 25.92 
L 278.288579 25.92 
L 275.693962 25.92 
L 273.099345 25.92 
L 270.504728 25.92 
L 267.910111 25.92 
L 265.315494 25.92 
L 262.720878 25.92 
L 260.126261 25.92 
L 257.531644 25.92 
L 254.937027 25.92 
L 252.34241 25.92 
L 249.747793 25.92 
L 247.153176 25.92 
L 244.55856 25.92 
L 241.963943 25.92 
L 239.369326 25.92 
L 236.774709 25.92 
L 234.180092 25.92 
L 231.585475 25.92 
L 228.990859 25.92 
L 226.396242 25.92 
L 223.801625 25.92 
L 221.207008 25.92 
L 218.612391 25.92 
L 216.017774 25.92 
L 213.423158 25.92 
L 210.828541 25.92 
L 208.233924 25.92 
L 205.639307 25.92 
L 203.04469 25.92 
L 200.450073 25.92 
L 197.855457 25.92 
L 195.26084 25.92 
L 192.666223 25.92 
L 190.071606 25.92 
L 187.476989 25.92 
L 184.882372 25.92 
L 182.287755 25.92 
L 179.693139 25.92 
L 177.098522 25.92 
L 174.503905 25.92 
L 171.909288 25.92 
L 169.314671 25.92 
L 166.720054 25.92 
L 164.125438 25.92 
L 161.530821 25.92 
L 158.936204 25.92 
L 156.341587 25.92 
L 153.74697 25.92 
L 151.152353 25.92 
L 148.557737 25.92 
L 145.96312 25.92 
L 143.368503 25.92 
L 140.773886 25.92 
L 138.179269 25.92 
L 135.584652 25.92 
L 132.990036 25.92 
L 130.395419 25.92 
L 127.800802 25.92 
L 125.206185 25.92 
L 122.611568 25.92 
L 120.016951 25.92 
L 117.422334 25.92 
L 114.827718 25.92 
L 112.233101 25.92 
L 109.638484 25.92 
L 107.043867 25.92 
L 104.44925 25.92 
L 101.854633 25.92 
L 99.260017 25.92 
L 96.6654 25.92 
L 94.070783 25.92 
L 91.476166 25.92 
L 91.476166 27.866061 
L 91.476166 29.812121 
L 91.476166 31.758182 
L 91.476166 33.704242 
L 91.476166 35.650303 
L 91.476166 37.596364 
L 91.476166 39.542424 
L 91.476166 41.488485 
L 91.476166 43.434545 
L 91.476166 45.380606 
L 91.476166 47.326667 
L 91.476166 49.272727 
L 91.476166 51.218788 
L 91.476166 53.164848 
L 91.476166 55.110909 
L 91.476166 57.05697 
L 91.476166 59.00303 
L 91.476166 60.949091 
L 91.476166 62.895152 
L 91.476166 64.841212 
L 91.476166 66.787273 
L 91.476166 68.733333 
L 91.476166 70.679394 
L 91.476166 72.625455 
L 91.476166 74.571515 
L 91.476166 76.517576 
L 91.476166 78.463636 
L 91.476166 80.409697 
L 91.476166 82.355758 
L 91.476166 84.301818 
L 91.476166 86.247879 
L 91.476166 88.193939 
L 91.476166 90.14 
L 91.476166 92.086061 
L 91.476166 94.032121 
L 91.476166 95.978182 
L 91.476166 97.924242 
L 91.476166 99.870303 
L 91.476166 101.816364 
L 91.476166 103.762424 
L 91.476166 105.708485 
L 91.476166 107.654545 
L 91.476166 109.600606 
L 91.476166 111.546667 
L 91.476166 113.492727 
L 91.476166 115.438788 
L 91.476166 117.384848 
L 91.476166 119.330909 
L 91.476166 121.27697 
L 91.476166 123.22303 
L 91.476166 125.169091 
L 91.476166 127.115152 
L 91.476166 129.061212 
L 91.476166 131.007273 
L 91.476166 132.953333 
L 91.476166 134.899394 
L 91.476166 136.845455 
L 91.476166 138.791515 
L 91.476166 140.737576 
L 91.476166 142.683636 
L 91.476166 144.629697 
L 91.476166 146.575758 
L 91.476166 148.521818 
L 91.476166 150.467879 
L 91.476166 152.413939 
L 91.476166 154.36 
L 91.476166 156.306061 
L 91.476166 158.252121 
L 91.476166 160.198182 
L 91.476166 162.144242 
L 91.476166 164.090303 
L 91.476166 166.036364 
L 91.476166 167.982424 
L 91.476166 169.928485 
L 91.476166 171.874545 
L 91.476166 173.820606 
L 91.476166 175.766667 
L 91.476166 177.712727 
L 91.476166 179.658788 
L 91.476166 181.604848 
L 91.476166 183.550909 
L 91.476166 185.49697 
L 91.476166 187.44303 
L 91.476166 189.389091 
L 91.476166 191.335152 
L 91.476166 193.281212 
L 91.476166 195.227273 
L 91.476166 197.173333 
L 91.476166 199.119394 
L 91.476166 201.065455 
L 91.476166 203.011515 
L 91.476166 204.957576 
L 91.476166 206.903636 
L 91.476166 208.849697 
L 91.476166 210.795758 
L 91.476166 212.741818 
L 91.476166 214.687879 
L 91.476166 216.633939 
L 91.476166 218.58 
L 92.046468 218.58 
z
" style="fill:#f7c6a6;"/>
   </g>
   <g id="patch_3">
    <path d="M 91.476166 218.58 
L 91.476166 25.92 
" style="fill:none;stroke:#cccccc;stroke-linecap:square;stroke-linejoin:miter;stroke-width:1.875;"/>
   </g>
   <g id="patch_4">
    <path d="M 348.343233 218.58 
L 348.343233 25.92 
" style="fill:none;stroke:#cccccc;stroke-linecap:square;stroke-linejoin:miter;stroke-width:1.875;"/>
   </g>
   <g id="patch_5">
    <path d="M 91.476166 218.58 
L 348.343233 218.58 
" style="fill:none;stroke:#cccccc;stroke-linecap:square;stroke-linejoin:miter;stroke-width:1.875;"/>
   </g>
   <g id="patch_6">
    <path d="M 91.476166 25.92 
L 348.343233 25.92 
" style="fill:none;stroke:#cccccc;stroke-linecap:square;stroke-linejoin:miter;stroke-width:1.875;"/>
   </g>
  </g>
  <g id="axes_2">
   <g id="patch_7">
    <path clip-path="url(#p937d11b4eb)" d="M 364.397425 218.58 
L 364.397425 180.048 
L 364.397425 64.452 
L 364.397425 25.92 
L 374.030425 25.92 
L 374.030425 64.452 
L 374.030425 180.048 
L 374.030425 218.58 
z
" style="fill:#ffffff;stroke:#ffffff;stroke-linejoin:miter;stroke-width:0.01;"/>
   </g>
   <g id="matplotlib.axis_3"/>
   <g id="matplotlib.axis_4">
    <g id="ytick_38">
     <g id="line2d_12">
      <defs>
       <path d="M 0 0 
L 9 0 
" id="mad39ef2d3f" style="stroke:#262626;stroke-width:1.875;"/>
      </defs>
      <g>
       <use style="fill:#262626;stroke:#262626;stroke-width:1.875;" x="374.030425" xlink:href="#mad39ef2d3f" y="218.58"/>
      </g>
     </g>
     <g id="text_14">
      <!-- 0.0 -->
      <g style="fill:#262626;" transform="translate(386.530425 224.848711)scale(0.165 -0.165)">
       <use xlink:href="#DejaVuSans-48"/>
       <use x="63.623047" xlink:href="#DejaVuSans-46"/>
       <use x="95.410156" xlink:href="#DejaVuSans-48"/>
      </g>
     </g>
    </g>
    <g id="ytick_39">
     <g id="line2d_13">
      <g>
       <use style="fill:#262626;stroke:#262626;stroke-width:1.875;" x="374.030425" xlink:href="#mad39ef2d3f" y="180.048"/>
      </g>
     </g>
     <g id="text_15">
      <!-- 0.2 -->
      <g style="fill:#262626;" transform="translate(386.530425 186.316711)scale(0.165 -0.165)">
       <use xlink:href="#DejaVuSans-48"/>
       <use x="63.623047" xlink:href="#DejaVuSans-46"/>
       <use x="95.410156" xlink:href="#DejaVuSans-50"/>
      </g>
     </g>
    </g>
    <g id="ytick_40">
     <g id="line2d_14">
      <g>
       <use style="fill:#262626;stroke:#262626;stroke-width:1.875;" x="374.030425" xlink:href="#mad39ef2d3f" y="141.516"/>
      </g>
     </g>
     <g id="text_16">
      <!-- 0.4 -->
      <g style="fill:#262626;" transform="translate(386.530425 147.784711)scale(0.165 -0.165)">
       <use xlink:href="#DejaVuSans-48"/>
       <use x="63.623047" xlink:href="#DejaVuSans-46"/>
       <use x="95.410156" xlink:href="#DejaVuSans-52"/>
      </g>
     </g>
    </g>
    <g id="ytick_41">
     <g id="line2d_15">
      <g>
       <use style="fill:#262626;stroke:#262626;stroke-width:1.875;" x="374.030425" xlink:href="#mad39ef2d3f" y="102.984"/>
      </g>
     </g>
     <g id="text_17">
      <!-- 0.6 -->
      <g style="fill:#262626;" transform="translate(386.530425 109.252711)scale(0.165 -0.165)">
       <use xlink:href="#DejaVuSans-48"/>
       <use x="63.623047" xlink:href="#DejaVuSans-46"/>
       <use x="95.410156" xlink:href="#DejaVuSans-54"/>
      </g>
     </g>
    </g>
    <g id="ytick_42">
     <g id="line2d_16">
      <g>
       <use style="fill:#262626;stroke:#262626;stroke-width:1.875;" x="374.030425" xlink:href="#mad39ef2d3f" y="64.452"/>
      </g>
     </g>
     <g id="text_18">
      <!-- 0.8 -->
      <g style="fill:#262626;" transform="translate(386.530425 70.720711)scale(0.165 -0.165)">
       <use xlink:href="#DejaVuSans-48"/>
       <use x="63.623047" xlink:href="#DejaVuSans-46"/>
       <use x="95.410156" xlink:href="#DejaVuSans-56"/>
      </g>
     </g>
    </g>
    <g id="ytick_43">
     <g id="line2d_17">
      <g>
       <use style="fill:#262626;stroke:#262626;stroke-width:1.875;" x="374.030425" xlink:href="#mad39ef2d3f" y="25.92"/>
      </g>
     </g>
     <g id="text_19">
      <!-- 1.0 -->
      <g style="fill:#262626;" transform="translate(386.530425 32.188711)scale(0.165 -0.165)">
       <use xlink:href="#DejaVuSans-49"/>
       <use x="63.623047" xlink:href="#DejaVuSans-46"/>
       <use x="95.410156" xlink:href="#DejaVuSans-48"/>
      </g>
     </g>
    </g>
   </g>
   <g id="QuadMesh_1">
    <path clip-path="url(#p937d11b4eb)" d="M 364.397425 218.58 
L 374.030425 218.58 
L 374.030425 180.048 
L 364.397425 180.048 
L 364.397425 218.58 
" style="fill:#251433;"/>
    <path clip-path="url(#p937d11b4eb)" d="M 364.397425 180.048 
L 374.030425 180.048 
L 374.030425 141.516 
L 364.397425 141.516 
L 364.397425 180.048 
" style="fill:#751f58;"/>
    <path clip-path="url(#p937d11b4eb)" d="M 364.397425 141.516 
L 374.030425 141.516 
L 374.030425 102.984 
L 364.397425 102.984 
L 364.397425 141.516 
" style="fill:#cb1b4f;"/>
    <path clip-path="url(#p937d11b4eb)" d="M 364.397425 102.984 
L 374.030425 102.984 
L 374.030425 64.452 
L 364.397425 64.452 
L 364.397425 102.984 
" style="fill:#f3714d;"/>
    <path clip-path="url(#p937d11b4eb)" d="M 364.397425 64.452 
L 374.030425 64.452 
L 374.030425 25.92 
L 364.397425 25.92 
L 364.397425 64.452 
" style="fill:#f7c6a6;"/>
   </g>
   <g id="patch_8">
    <path d="M 364.397425 218.58 
L 364.397425 180.048 
L 364.397425 64.452 
L 364.397425 25.92 
L 374.030425 25.92 
L 374.030425 64.452 
L 374.030425 180.048 
L 374.030425 218.58 
z
" style="fill:none;stroke:#cccccc;stroke-linejoin:miter;stroke-width:1.875;"/>
   </g>
  </g>
 </g>
 <defs>
  <clipPath id="p3af847143a">
   <rect height="192.66" width="256.867067" x="91.476166" y="25.92"/>
  </clipPath>
  <clipPath id="p937d11b4eb">
   <rect height="192.66" width="9.633" x="364.397425" y="25.92"/>
  </clipPath>
 </defs>
</svg>
